<svg width="25" height="16" viewBox="0 0 25 16" fill="none" xmlns="http://www.w3.org/2000/svg">
<g id="319">
<g id="New Icons">
<g id="Card Brands">
<g id="Color">
<g id="Discover">
<path id="shape" d="M22.0318 15.7499L22.0339 15.7499C22.9862 15.7581 23.7674 14.9773 23.7793 14.0042L23.7793 2.0063C23.7755 1.53569 23.5888 1.08617 23.2606 0.756802C22.9333 0.428269 22.4921 0.246149 22.0318 0.250071L2.09439 0.250062C1.63621 0.246149 1.195 0.428269 0.867675 0.756802C0.539517 1.08617 0.352765 1.53569 0.348946 2.00426L0.348938 13.9937C0.352765 14.4643 0.539517 14.9138 0.867675 15.2432C1.195 15.5717 1.63621 15.7538 2.09651 15.7499H22.0318ZM22.0307 16.2499C22.0304 16.2499 22.03 16.2499 22.0296 16.2499L22.0318 16.2499H22.0307Z" fill="white" stroke="black" stroke-opacity="0.2" stroke-width="0.5"/>
<path id="shape_2" d="M12.6747 16.0002H22.0318C22.557 16.0046 23.0624 15.7995 23.4369 15.4301C23.8114 15.0607 24.0242 14.5573 24.0286 14.0305V11.6719C20.4953 13.7062 16.6633 15.167 12.6747 16.0002Z" fill="#F27712"/>
<path id="shape_3" d="M23.2035 9.29643H22.3536L21.3964 8.03023H21.3057V9.29643H20.6126V6.15161H21.6357C22.4361 6.15161 22.8982 6.48264 22.8982 7.0785C22.8982 7.56678 22.6094 7.88126 22.0895 7.98057L23.2035 9.29643ZM22.1803 7.10333C22.1803 6.79712 21.9493 6.63988 21.5202 6.63988H21.3057V7.59161H21.5037C21.9493 7.59161 22.1803 7.42609 22.1803 7.10333ZM18.1867 6.15161H20.1505V6.68126H18.8798V7.38471H20.101V7.92264H18.8798V8.77505H20.1505V9.30471H18.1867V6.15161ZM15.9588 9.37919L14.457 6.14333H15.2162L16.1651 8.26195L17.1222 6.14333H17.8649L16.3466 9.37919H15.9753H15.9588ZM9.67952 9.37092C8.62334 9.37092 7.79821 8.65092 7.79821 7.71574C7.79821 6.8054 8.63985 6.06885 9.69602 6.06885C9.99307 6.06885 10.2406 6.12678 10.5459 6.25919V6.98747C10.3147 6.75965 10.0036 6.63187 9.67952 6.63161C9.01941 6.63161 8.51608 7.11161 8.51608 7.71574C8.51608 8.35299 9.01116 8.80816 9.71252 8.80816C10.0261 8.80816 10.2654 8.70885 10.5459 8.46057V9.18885C10.2324 9.32126 9.96831 9.37092 9.67952 9.37092ZM7.58367 8.33643C7.58367 8.94885 7.08034 9.37092 6.35422 9.37092C5.82614 9.37092 5.44657 9.18885 5.12477 8.77505L5.5786 8.38609C5.73537 8.66747 5.99941 8.80816 6.32947 8.80816C6.64302 8.80816 6.86581 8.61781 6.86581 8.36954C6.86581 8.22885 6.7998 8.12126 6.65952 8.0385C6.50572 7.96365 6.34556 7.90271 6.18094 7.85643C5.52909 7.64954 5.3063 7.42609 5.3063 6.98747C5.3063 6.47436 5.78488 6.0854 6.41198 6.0854C6.80805 6.0854 7.16285 6.20954 7.4599 6.44126L7.09684 6.85505C6.95295 6.69683 6.74927 6.60671 6.53575 6.60678C6.2387 6.60678 6.02417 6.75574 6.02417 6.95436C6.02417 7.11988 6.14794 7.21092 6.56051 7.35161C7.35264 7.59988 7.58367 7.83161 7.58367 8.34471V8.33643ZM4.17587 6.15161H4.86898V9.30471H4.17587V6.15161ZM1.948 9.30471H0.924835V6.15161H1.948C3.07019 6.15161 3.84581 6.79712 3.84581 7.72402C3.84581 8.19574 3.61477 8.64264 3.21046 8.94057C2.8639 9.18885 2.47609 9.30471 1.93975 9.30471H1.948ZM2.75663 6.93781C2.5256 6.75574 2.26155 6.68954 1.80773 6.68954H1.61795V8.77505H1.80773C2.2533 8.77505 2.53385 8.6923 2.75663 8.52678C2.99592 8.32816 3.1362 8.03023 3.1362 7.72402C3.1362 7.41781 2.99592 7.12816 2.75663 6.93781Z" fill="black"/>
<path id="shape_4" d="M12.4767 6.06885C11.5691 6.06885 10.8264 6.79712 10.8264 7.69919C10.8264 8.65919 11.5361 9.37919 12.4767 9.37919C13.4009 9.37919 14.127 8.65092 14.127 7.72402C14.127 6.79712 13.4091 6.06885 12.4767 6.06885Z" fill="#F27712"/>
</g>
</g>
</g>
</g>
</g>
</svg>
