<svg width="34" height="32" viewBox="0 0 34 32" fill="none" xmlns="http://www.w3.org/2000/svg">
<path d="M16.4926 4.5957V4.59675C16.4758 4.62583 12.9952 10.6297 8.65038 17.96C4.29503 25.3081 0.699707 31.1911 0.699707 31.1911L13.0312 31.137L13.032 31.1369L13.0294 31.1464C19.0169 31.0304 24.4179 27.0939 26.0117 21.1458C26.5099 19.2864 26.585 17.4147 26.2961 15.626C25.504 10.3587 21.6146 6.07496 16.4926 4.5957Z" fill="black"/>
<path d="M23.3076 0.80957V0.810614C23.2907 0.839693 19.8101 6.84355 15.4653 14.1739C11.11 21.522 7.51465 27.4049 7.51465 27.4049L19.8461 27.3509L19.8469 27.3507L19.8444 27.3603C25.8319 27.2443 31.2328 23.3078 32.8266 17.3597C33.3248 15.5003 33.4 13.6286 33.111 11.8398C32.3189 6.5726 28.4296 2.28883 23.3076 0.80957Z" fill="#10F2C5"/>
</svg>
