<svg width="25" height="16" viewBox="0 0 25 16" fill="none" xmlns="http://www.w3.org/2000/svg">
<g id="Group">
<path id="Vector" d="M22.1767 0H2.23593C1.13463 0 0.241852 0.89543 0.241852 2V14C0.241852 15.1046 1.13463 16 2.23593 16H22.1767C23.278 16 24.1708 15.1046 24.1708 14V2C24.1708 0.89543 23.278 0 22.1767 0Z" fill="#252525"/>
<path id="Vector_2" d="M9.2152 13C11.9684 13 14.2004 10.7614 14.2004 8C14.2004 5.23858 11.9684 3 9.2152 3C6.46196 3 4.23001 5.23858 4.23001 8C4.23001 10.7614 6.46196 13 9.2152 13Z" fill="#EB001B"/>
<path id="Vector_3" d="M15.1974 13C17.9507 13 20.1826 10.7614 20.1826 8C20.1826 5.23858 17.9507 3 15.1974 3C12.4442 3 10.2122 5.23858 10.2122 8C10.2122 10.7614 12.4442 13 15.1974 13Z" fill="#F79E1B"/>
<path id="Vector_4" fill-rule="evenodd" clip-rule="evenodd" d="M12.2063 3.99951C13.4171 4.91172 14.2004 6.36406 14.2004 7.99988C14.2004 9.6357 13.4171 11.088 12.2063 12.0002C10.9954 11.088 10.2122 9.6357 10.2122 7.99988C10.2122 6.36406 10.9954 4.91172 12.2063 3.99951Z" fill="#FF5F00"/>
</g>
</svg>
