<svg width="12" height="11" viewBox="0 0 12 11" fill="none" xmlns="http://www.w3.org/2000/svg">
<path id="Vector" d="M5.89291 10.2857C4.53217 10.2857 3.22716 9.74388 2.26498 8.77941C1.30279 7.81493 0.762238 6.50683 0.762238 5.14286C0.762238 3.77889 1.30279 2.47078 2.26498 1.50631C3.22716 0.541835 4.53217 0 5.89291 0C7.25365 0 8.55865 0.541835 9.52084 1.50631C10.483 2.47078 11.0236 3.77889 11.0236 5.14286C11.0236 6.50683 10.483 7.81493 9.52084 8.77941C8.55865 9.74388 7.25365 10.2857 5.89291 10.2857ZM3.8553 3.01224H3.27627L1.86167 3.73224V4.46694L2.98308 3.87918V7.27347H3.86263V3.01224H3.8553ZM5.54109 3.6C5.95887 3.6 6.25205 3.8351 6.25205 4.17306C6.25205 4.54041 5.90757 4.79755 5.40916 4.79755H5.18927V5.42204H5.45314C5.98086 5.42204 6.34001 5.68653 6.34001 6.06857C6.34001 6.43592 5.98819 6.68571 5.48978 6.68571C5.12331 6.68571 4.75683 6.56816 4.3757 6.34041V7.0751C4.78615 7.25143 5.1966 7.34694 5.59973 7.34694C6.5599 7.34694 7.21955 6.85469 7.21955 6.14204C7.21955 5.64245 6.91171 5.23837 6.39865 5.07673C6.83842 4.9298 7.12427 4.54041 7.12427 4.09959C7.12427 3.40898 6.51592 2.93878 5.63637 2.93878C5.23989 2.94318 4.84842 3.02816 4.48564 3.18857V3.90857C4.83746 3.7102 5.1966 3.6 5.54109 3.6ZM8.70745 5.20163C9.2425 5.20163 9.61631 5.51755 9.61631 5.92898C9.61631 6.36245 9.2425 6.66367 8.70745 6.66367C8.38495 6.66367 8.04779 6.56082 7.7033 6.34776V7.10449C8.06245 7.26612 8.42892 7.34694 8.78807 7.34694C8.97864 7.34694 9.15455 7.31755 9.32313 7.27347C9.70426 6.64898 9.92415 5.92898 9.92415 5.15755L9.90949 4.84898C9.63697 4.68729 9.32453 4.60581 9.00796 4.61388C8.87603 4.61388 8.73677 4.62122 8.59017 4.64327V3.68816H9.64563C9.55409 3.453 9.44123 3.22675 9.30847 3.01224H7.8279V5.32653C8.12108 5.25306 8.41427 5.20163 8.70745 5.20163Z" fill="#697386"/>
</svg>
