<svg width="24" height="16" viewBox="0 0 24 16" fill="none" xmlns="http://www.w3.org/2000/svg">
<g id="Frame" clip-path="url(#clip0_334_957)">
<path id="shape" opacity="0.2" d="M16.0086 0.567383H1.54983C0.873914 0.567383 0.0804443 1.34616 0.0804443 2.03677V13.0572C0.0804443 13.7478 0.873914 14.5266 1.54983 14.5266H19.9172C20.5931 14.5266 21.3866 13.7478 21.3866 13.0572V7.52493C20.7676 8.08168 20.0033 8.45113 19.1825 8.59024V8.64902C19.1825 9.13391 18.918 9.38371 18.4478 9.38371H2.28453C1.81432 9.38371 1.54983 9.13391 1.54983 8.64902V7.91432C1.54983 7.42942 1.81432 7.17963 2.28453 7.17963H15.1637C14.7396 6.70963 14.4221 6.15353 14.2329 5.54941C14.0437 4.94528 13.9873 4.30741 14.0675 3.67945C14.1477 3.0515 14.3627 2.4483 14.6978 1.91117C15.0328 1.37403 15.4799 0.915639 16.0086 0.567383V0.567383Z" fill="#697386"/>
<path id="shape_2" d="M14.2894 2.77148H0.0804443V4.97557H14.0984C13.975 4.23653 14.0407 3.47827 14.2894 2.77148Z" fill="#697386"/>
</g>
<defs>
<clipPath id="clip0_334_957">
<rect width="23.5102" height="15.4286" fill="white" transform="translate(0.0804443 0.567383)"/>
</clipPath>
</defs>
</svg>
